<svg xmlns="http://www.w3.org/2000/svg" viewBox="0 0 1283.1 1024"><defs><style>.cls-1{fill:#6c4ab6;}.cls-10,.cls-2,.cls-7,.cls-8,.cls-9{fill:none;}.cls-2{stroke:#fff;stroke-linecap:round;stroke-width:2px;}.cls-10,.cls-2,.cls-6,.cls-7,.cls-8,.cls-9{stroke-miterlimit:10;}.cls-3{fill:#ba6fb0;}.cls-4{fill:#734ce5;}.cls-5{fill:#f0bd31;}.cls-6{fill:#e2595b;}.cls-10,.cls-6,.cls-7{stroke:#e2595b;}.cls-10,.cls-6{stroke-width:4px;}.cls-7,.cls-8,.cls-9{stroke-width:3px;}.cls-8{stroke:#f0bd31;}.cls-9{stroke:#95d1b5;}</style></defs><title>abstrack-lpg</title><g id="Layer_1" data-name="Layer 1"><rect class="cls-1" width="1280" height="1024"/></g><g id="Layer_4" data-name="Layer 4"><line class="cls-2" x1="1148.3" y1="299.2" x2="1280" y2="207.8"/><line class="cls-2" x1="1117.9" y1="320.3" x2="1133.5" y2="309.5"/><line class="cls-2" x1="592.5" y1="185.2" x2="822.4" y2="25.6"/><line class="cls-2" x1="557.3" y1="209.7" x2="572.8" y2="198.9"/><line class="cls-2" x1="748.5" y1="727.7" x2="880.2" y2="636.3"/><line class="cls-2" x1="718.1" y1="748.8" x2="733.7" y2="738"/><line class="cls-2" x1="250.2" y1="722.8" x2="381.9" y2="631.4"/><line class="cls-2" x1="219.8" y1="743.9" x2="235.4" y2="733.1"/></g><g id="Layer_2" data-name="Layer 2"><path class="cls-3" d="M194.1,1024s79.6-167.1,208.5-197.6,194.1,15.2,323-28.7,206.3-183.7,332.7-225c138.4-43.9,224.8-12.3,224.8-12.3V1024Z"/><path class="cls-4" d="M42.9,1024s77.6-55.9,98.8-104.6c24.4-56.3,22.5-240.4,92.5-360.8,67.7-116.4,178.2-199.1,193-330.3C439.1,122.9,496.7,70.6,553.4,52,603,35.8,678.2,0,678.2,0H0V1024Z"/></g><g id="Layer_3" data-name="Layer 3"><circle class="cls-5" cx="967.6" cy="139.4" r="94.6"/><polygon class="cls-6" points="1003.6 473.4 1021 473.4 1012.3 488.5 1003.6 503.6 994.8 488.5 986.1 473.4 1003.6 473.4"/><polygon class="cls-7" points="1159.1 91.1 1180.8 91.1 1170 109.8 1159.1 128.5 1148.3 109.8 1137.5 91.1 1159.1 91.1"/><circle class="cls-8" cx="799.1" cy="410.7" r="13.1"/><circle class="cls-8" cx="310.8" cy="110.7" r="10"/><rect class="cls-9" x="906.1" y="306.9" width="18.5" height="18.54" transform="translate(491.6 -554.7) rotate(45)"/><rect class="cls-9" x="503.1" y="59.5" width="25.3" height="25.28" transform="translate(202.1 -343.6) rotate(45)"/><polygon class="cls-10" points="1003.6 448.7 1059 448.7 1031.3 496.7 1003.6 544.7 975.8 496.7 948.1 448.7 1003.6 448.7"/><circle class="cls-5" cx="267.4" cy="592.6" r="40.9"/><circle class="cls-8" cx="267.4" cy="592.6" r="73.4"/><polygon class="cls-7" points="493.3 533 511.6 533 502.4 548.8 493.3 564.7 484.2 548.8 475 533 493.3 533"/><polygon class="cls-7" points="80.8 164.3 93.7 164.3 87.2 175.5 80.8 186.7 74.3 175.5 67.8 164.3 80.8 164.3"/><rect class="cls-9" x="98.4" y="511.4" width="15.7" height="15.67" transform="translate(398.3 76.9) rotate(45)"/></g></svg>