<svg xmlns="http://www.w3.org/2000/svg" viewBox="0 0 1280 1024"><defs><style>.cls-1{fill:#6c4ab6;}.cls-2,.cls-3,.cls-4{fill:none;stroke-miterlimit:10;}.cls-2{stroke:#fbb03b;stroke-linecap:round;}.cls-2,.cls-4{stroke-width:4px;}.cls-3,.cls-4{stroke:#fff;}.cls-3{stroke-width:5px;}</style></defs><title>abstrack-lpg</title><g id="Layer_1" data-name="Layer 1"><rect class="cls-1" width="1280" height="1024"/></g><g id="Layer_2" data-name="Layer 2"><line class="cls-2" x1="818.4" y1="750.3" x2="586.1" y2="987.7"/><line class="cls-2" x1="1103.9" y1="833.4" x2="983.7" y2="964.7"/><line class="cls-2" x1="1123" y1="627.3" x2="1002.8" y2="758.6"/><line class="cls-2" x1="1223" y1="32.6" x2="902.8" y2="382.4"/><line class="cls-2" x1="314.6" y1="766.1" x2="113.3" y2="986.1"/><line class="cls-2" x1="722.1" y1="62.4" x2="536.1" y2="265.5"/><line class="cls-2" x1="215.4" y1="59.2" x2="95.2" y2="190.5"/><line class="cls-2" x1="876.5" y1="512" x2="756.3" y2="643.3"/></g><g id="Layer_3" data-name="Layer 3"><circle class="cls-3" cx="381.9" cy="185.9" r="15.6"/><circle class="cls-3" cx="478" cy="926.8" r="19.9"/><circle class="cls-3" cx="756.3" cy="240.7" r="19.9"/><circle class="cls-3" cx="960.5" cy="689.3" r="10"/><polygon class="cls-4" points="1179.1 199.7 1203.5 199.7 1191.3 220.8 1179.1 241.9 1166.9 220.8 1154.8 199.7 1179.1 199.7"/><polygon class="cls-4" points="1179.1 244.3 1203.5 244.3 1191.3 265.4 1179.1 286.5 1166.9 265.4 1154.8 244.3 1179.1 244.3"/><polygon class="cls-4" points="1179.1 288.9 1203.5 288.9 1191.3 310 1179.1 331.1 1166.9 310 1154.8 288.9 1179.1 288.9"/><polygon class="cls-4" points="924.7 108.6 937.6 108.6 931.1 119.8 924.7 131 918.2 119.8 911.8 108.6 924.7 108.6"/><polygon class="cls-4" points="150.1 814.9 171.4 814.9 160.7 833.3 150.1 851.7 139.5 833.3 128.8 814.9 150.1 814.9"/><polygon class="cls-4" points="756.3 636.1 777.6 636.1 766.9 654.5 756.3 672.9 745.7 654.5 735 636.1 756.3 636.1"/></g></svg>